<?xml version="1.0" encoding="UTF-8"?>
<svg version="1.1" xmlns="http://www.w3.org/2000/svg" width="1536" height="1024">
<path d="M0 0 C506.88 0 1013.76 0 1536 0 C1536 337.92 1536 675.84 1536 1024 C1029.12 1024 522.24 1024 0 1024 C0 686.08 0 348.16 0 0 Z " fill="#F7F7F7" transform="translate(0,0)"/>
<path d="M0 0 C2.24841081 0.0044203 4.49682473 0.007475 6.74523926 0.00915527 C15.00859253 0.02477438 23.27187936 0.0666579 31.53515625 0.10546875 C50.03578125 0.16734375 68.53640625 0.22921875 87.59765625 0.29296875 C87.59765625 44.18296875 87.59765625 88.07296875 87.59765625 133.29296875 C52.94765625 133.29296875 18.29765625 133.29296875 -17.40234375 133.29296875 C-17.40234375 167.61296875 -17.40234375 201.93296875 -17.40234375 237.29296875 C-52.71234375 237.29296875 -88.02234375 237.29296875 -124.40234375 237.29296875 C-124.52283476 206.64808976 -124.52283476 206.64808976 -124.55310535 191.37058926 C-124.56964674 183.15040745 -124.59055347 174.93031825 -124.62866211 166.71020508 C-124.6588483 160.19579579 -124.67798492 153.68145679 -124.68460923 147.16697949 C-124.68847285 143.72722635 -124.69735367 140.28767405 -124.71953392 136.84798622 C-124.94880105 96.79986741 -118.2048575 61.03880179 -89.4296875 31.29296875 C-78.35286239 20.16344705 -65.56685555 11.93203944 -50.90234375 6.41796875 C-50.18046875 6.14388184 -49.45859375 5.86979492 -48.71484375 5.58740234 C-32.58381408 -0.13158727 -16.92639731 -0.11180431 0 0 Z " fill="#013E78" transform="translate(193.40234375,384.70703125)"/>
<path d="M0 0 C17.01968804 14.08251941 27.42643992 31.99793365 33.04858398 53.19726562 C33.24363525 53.92187988 33.43868652 54.64649414 33.63964844 55.39306641 C35.33598267 62.60192171 35.38686897 69.80901068 35.36425781 77.171875 C35.36111971 79.29805934 35.38455556 81.42281688 35.40991211 83.54882812 C35.53328721 109.84236324 26.67557668 133.57004681 9.04858398 153.19726562 C8.42467773 153.90367187 7.80077148 154.61007812 7.15795898 155.33789062 C-4.59843295 167.88462824 -20.45182569 175.98115409 -36.95141602 180.19726562 C-38.27786133 180.53757812 -38.27786133 180.53757812 -39.63110352 180.88476562 C-64.67878922 186.11210873 -90.36029668 180.99405139 -111.63891602 167.07226562 C-132.55571818 151.74708384 -144.92136131 131.3321571 -150.95141602 106.19726562 C-151.17829102 105.25496094 -151.40516602 104.31265625 -151.63891602 103.34179688 C-157.18072491 74.82457192 -151.74221717 45.47079961 -136.22827148 21.04736328 C-132.69582023 15.92902378 -128.34487737 11.57060426 -123.95141602 7.19726562 C-123.32364258 6.52179688 -122.69586914 5.84632813 -122.04907227 5.15039062 C-110.9068409 -6.69970015 -95.52205862 -13.85552689 -79.95141602 -17.80273438 C-79.07356445 -18.02832031 -78.19571289 -18.25390625 -77.29125977 -18.48632812 C-50.79274551 -24.28162913 -21.01548624 -16.74618883 0 0 Z " fill="#013C78" transform="translate(1229.951416015625,420.802734375)"/>
<path d="M0 0 C35 0 35 0 41.5234375 6.5 C42.43881232 8.59509298 43.35357186 10.69400244 44.12927246 12.84472656 C45.62039688 16.535641 47.9484862 19.63299793 50.2265625 22.875 C51.11757968 24.20848084 52.00476016 25.5445329 52.88818359 26.88305664 C60.90806775 38.95050265 68.99027437 50.95792153 77.30981445 62.8215332 C82.57629352 70.3465151 87.68391712 77.96952171 92.75976562 85.62402344 C100.50913267 97.30141282 108.39766796 108.88398796 116.28271484 120.4699707 C117.53010227 122.30771251 118.76795725 124.15193588 120 126 C120.33 84.42 120.66 42.84 121 0 C133.54 0 146.08 0 159 0 C159 64.35 159 128.7 159 195 C147.12 195 135.24 195 123 195 C112.55103683 183.366821 112.55103683 183.366821 109.92578125 177.6796875 C106.05349096 169.73010138 101.22458478 162.56766805 96.23822021 155.28170776 C94.87100564 153.27343759 93.52346205 151.25372161 92.18408203 149.22680664 C87.3136167 141.85769844 82.32792868 134.58165995 77.2421875 127.359375 C70.38578723 117.61710269 63.73798658 107.74398444 57.14575195 97.8215332 C55.27764627 95.01004535 53.40567257 92.20116116 51.53320312 89.39257812 C50.33050848 87.58608441 49.12802613 85.77944932 47.92578125 83.97265625 C47.37271805 83.14250504 46.81965485 82.31235382 46.24983215 81.45704651 C45.73466537 80.68110641 45.2194986 79.90516632 44.6887207 79.10571289 C44.24019241 78.43101456 43.79166412 77.75631622 43.32954407 77.06117249 C41.83295873 74.7410384 40.42049193 72.36748655 39 70 C38.67 111.25 38.34 152.5 38 195 C25.46 195 12.92 195 0 195 C0 130.65 0 66.3 0 0 Z " fill="#003D79" transform="translate(589,405)"/>
<path d="M0 0 C105.14681284 0 105.14681284 0 125.6875 19.1875 C138.75116375 32.80510002 142.58508166 49.94488611 142.2734375 68.23046875 C141.61149241 84.46778509 134.98028688 99.9430592 123.66796875 111.59765625 C119.44626613 115.39904294 114.99148453 118.31010522 110 121 C109.16082031 121.46019531 108.32164062 121.92039062 107.45703125 122.39453125 C91.91301402 130.17829782 75.93987904 130.53901039 58.9375 130.25 C48.5734375 130.12625 48.5734375 130.12625 38 130 C38 151.45 38 172.9 38 195 C25.46 195 12.92 195 0 195 C0 130.65 0 66.3 0 0 Z " fill="#033D77" transform="translate(784,405)"/>
<path d="M0 0 C38.94 0 77.88 0 118 0 C118 12.21 118 24.42 118 37 C91.6 37 65.2 37 38 37 C38 52.51 38 68.02 38 84 C62.42 84 86.84 84 112 84 C112 96.21 112 108.42 112 121 C87.58 121 63.16 121 38 121 C38 145.42 38 169.84 38 195 C25.46 195 12.92 195 0 195 C0 130.65 0 66.3 0 0 Z " fill="#013D79" transform="translate(369,405)"/>
<path d="M0 0 C47.85 0 95.7 0 145 0 C145 12.54 145 25.08 145 38 C127.84 38 110.68 38 93 38 C93 89.81 93 141.62 93 195 C80.46 195 67.92 195 55 195 C55 143.19 55 91.38 55 38 C36.85 38 18.7 38 0 38 C0 25.46 0 12.92 0 0 Z " fill="#023D78" transform="translate(1270,405)"/>
<path d="M0 0 C11.55615106 10.93149425 17.52114957 27.09903991 18.015625 42.78515625 C18.30427391 62.26068443 15.29146605 79.35350647 2.8125 95 C2.09900391 95.93779297 2.09900391 95.93779297 1.37109375 96.89453125 C-4.94309275 104.19788535 -17.05738032 110.30206744 -26.59375 111.82421875 C-37.36937498 112.55449454 -47.97510588 113.03593815 -58.1875 109 C-59.02410156 108.67128906 -59.86070313 108.34257813 -60.72265625 108.00390625 C-73.68315997 102.21474771 -82.79262526 91.44079913 -88 78.4375 C-94.95195363 59.8119587 -95.47539318 36.22895655 -87.1875 18 C-86.7646875 17.00613281 -86.341875 16.01226562 -85.90625 14.98828125 C-79.19115905 0.99200157 -67.91989455 -6.49378618 -53.9296875 -11.8671875 C-35.45430817 -17.15621766 -14.5255802 -11.91274718 0 0 Z " fill="#F6F7F7" transform="translate(1209.1875,453)"/>
<path d="M0 0 C12.21 0 24.42 0 37 0 C37 51.81 37 103.62 37 157 C63.07 157 89.14 157 116 157 C116 169.54 116 182.08 116 195 C77.72 195 39.44 195 0 195 C0 130.65 0 66.3 0 0 Z " fill="#003D79" transform="translate(951,405)"/>
<path d="M0 0 C12.54 0 25.08 0 38 0 C38 64.35 38 128.7 38 195 C25.46 195 12.92 195 0 195 C0 130.65 0 66.3 0 0 Z " fill="#003E79" transform="translate(514,405)"/>
<path d="M0 0 C7.074375 -0.061875 14.14875 -0.12375 21.4375 -0.1875 C24.76026001 -0.22846802 24.76026001 -0.22846802 28.15014648 -0.27026367 C29.93212338 -0.27903643 31.71410636 -0.28667849 33.49609375 -0.29296875 C34.40008911 -0.30831665 35.30408447 -0.32366455 36.23547363 -0.33947754 C44.77281014 -0.34294659 52.11482939 1.31681342 58.49609375 7.25390625 C64.71274439 14.47167985 65.65902215 22.81030219 65 32 C63.79169709 38.97334135 61.22821124 45.10874209 56 50 C50.24563207 53.65443272 44.55325507 56.13419655 37.69042969 56.11352539 C36.83819824 56.11340454 35.9859668 56.11328369 35.10791016 56.11315918 C34.22151855 56.10804321 33.33512695 56.10292725 32.421875 56.09765625 C31.60025879 56.09664917 30.77864258 56.09564209 29.93212891 56.09460449 C26.87140501 56.08938382 23.81070106 56.07542255 20.75 56.0625 C10.47875 56.0315625 10.47875 56.0315625 0 56 C0 37.52 0 19.04 0 0 Z " fill="#F6F7F8" transform="translate(822,442)"/>
<path d="M0 0 C0 24.42 0 48.84 0 74 C-24.09 74 -48.18 74 -73 74 C-66.26109169 66.13794031 -66.26109169 66.13794031 -63.4921875 63.4296875 C-62.60080078 62.54990234 -62.60080078 62.54990234 -61.69140625 61.65234375 C-60.79228516 60.77255859 -60.79228516 60.77255859 -59.875 59.875 C-56.63965843 56.70834933 -53.49820417 53.63331038 -50.6953125 50.0703125 C-50.13585937 49.38710938 -49.57640625 48.70390625 -49 48 C-48.34 48 -47.68 48 -47 48 C-46.75766129 47.43267151 -46.51532257 46.86534302 -46.26564026 46.28082275 C-44.75404416 43.55676056 -42.95553701 41.70855704 -40.74975586 39.50683594 C-39.87222153 38.62622498 -38.99468719 37.74561401 -38.09056091 36.83831787 C-37.13216901 35.88682175 -36.17359225 34.9355118 -35.21484375 33.984375 C-34.23324229 33.00396606 -33.25201066 32.02318672 -32.27113342 31.04205322 C-30.21890976 28.99139099 -28.16337735 26.94412518 -26.10522461 24.89941406 C-23.46134756 22.27258243 -20.82415752 19.63915954 -18.18916988 17.00341415 C-16.16580938 14.98032484 -14.13985906 12.95984646 -12.1130085 10.94025421 C-11.13913347 9.96956986 -10.16587042 8.99827113 -9.19322014 8.02635956 C-7.83828035 6.67357592 -6.4796599 5.32448179 -5.12084961 3.97558594 C-4.34744736 3.20599548 -3.5740451 2.43640503 -2.77720642 1.64349365 C-1 0 -1 0 0 0 Z " fill="#013B77" transform="translate(281,547)"/>
<path d="M0 0 C12.54 0 25.08 0 38 0 C38 64.35 38 128.7 38 195 C25.46 195 12.92 195 0 195 C0 130.65 0 66.3 0 0 Z M2 2 C2 65.03 2 128.06 2 193 C13.22 193 24.44 193 36 193 C36 129.97 36 66.94 36 2 C24.78 2 13.56 2 2 2 Z " fill="#2C4677" transform="translate(514,405)"/>
<path d="M0 0 C11.55 0 23.1 0 35 0 C42.85975772 7.99886848 42.85975772 7.99886848 45 15 C45.66102081 16.66891393 46.32498899 18.33669535 47 20 C45.948125 19.0409375 45.948125 19.0409375 44.875 18.0625 C41.77158767 15.83613898 39.75379861 15.34919057 36 15 C36 14.34 36 13.68 36 13 C36.99 13 37.98 13 39 13 C36.525 8.05 36.525 8.05 34 3 C23.44 2.67 12.88 2.34 2 2 C2 65.03 2 128.06 2 193 C13.22 193 24.44 193 36 193 C35.98428955 187.62412598 35.98428955 187.62412598 35.96826172 182.13964844 C35.93515787 170.31318715 35.91294288 158.48672265 35.89637566 146.66022873 C35.88606162 139.48814279 35.87199886 132.31610074 35.84912109 125.14404297 C35.8291911 118.89312023 35.81628449 112.64222927 35.81182301 106.39127564 C35.80921496 103.08121677 35.80203497 99.77127006 35.78853989 96.46123505 C35.77407315 92.76674453 35.77202006 89.07244386 35.77294922 85.37792969 C35.76575867 84.27957291 35.75856812 83.18121613 35.75115967 82.04957581 C35.753909 81.04279282 35.75665833 80.03600983 35.75949097 78.99871826 C35.75764738 78.12485851 35.75580379 77.25099876 35.75390434 76.35065842 C36 74 36 74 38 70 C38 111.25 38 152.5 38 195 C25.46 195 12.92 195 0 195 C0 130.65 0 66.3 0 0 Z " fill="#062B5B" transform="translate(589,405)"/>
<path d="M0 0 C12.54 0 25.08 0 38 0 C38 64.35 38 128.7 38 195 C26.12 195 14.24 195 2 195 C2 194.34 2 193.68 2 193 C13.22 193 24.44 193 36 193 C36 129.97 36 66.94 36 2 C24.78 2.33 13.56 2.66 2 3 C2 44.25 2 85.5 2 128 C0.68 128.33 -0.64 128.66 -2 129 C-2.66 127.68 -3.32 126.36 -4 125 C-3.01 125.33 -2.02 125.66 -1 126 C-0.67 84.42 -0.34 42.84 0 0 Z " fill="#203A6D" transform="translate(710,405)"/>
<path d="M0 0 C17.82 0 35.64 0 54 0 C54 51.81 54 103.62 54 157 C66.54 157 79.08 157 92 157 C92 105.19 92 53.38 92 0 C108.83 0 125.66 0 143 0 C143 0.33 143 0.66 143 1 C126.83 1.33 110.66 1.66 94 2 C93.97722022 17.50181487 93.95888744 33.00362114 93.94818783 48.50544834 C93.9430826 55.70700756 93.93615353 62.90855548 93.92456055 70.11010742 C93.91443351 76.40413943 93.90810492 82.69816324 93.90591151 88.99220318 C93.90463415 92.3092407 93.90117787 95.62623655 93.89426994 98.94326973 C93.88678814 102.69209651 93.884815 106.44086382 93.88647461 110.18969727 C93.88643401 111.38867929 93.88639341 112.5876613 93.88635159 113.82297611 C93.9091404 120.44163873 94.05405329 127.04195927 94.33474731 133.65377808 C94.37842327 134.72810759 94.37842327 134.72810759 94.42298156 135.82414073 C94.56542225 139.2967261 94.72434638 142.76708418 94.91290951 146.23747349 C94.96727452 147.47189151 95.02163954 148.70630953 95.07765198 149.97813416 C95.1346354 151.07063445 95.19161882 152.16313475 95.25032902 153.28874111 C95 156 95 156 92 159 C78.8 158.67 65.6 158.34 52 158 C52 106.19 52 54.38 52 1 C34.84 1 17.68 1 0 1 C0 0.67 0 0.34 0 0 Z " fill="#F1FEFE" transform="translate(1271,443)"/>
<path d="M0 0 C12.21 0 24.42 0 37 0 C37 51.81 37 103.62 37 157 C36.67 157 36.34 157 36 157 C36 105.85 36 54.7 36 2 C24.78 2 13.56 2 2 2 C2.33 65.03 2.66 128.06 3 193 C2.01 193.33 1.02 193.66 0 194 C0 129.98 0 65.96 0 0 Z " fill="#052152" transform="translate(951,405)"/>
<path d="M0 0 C0.66 0 1.32 0 2 0 C2 51.48 2 102.96 2 156 C13.55 156 25.1 156 37 156 C37 105.18 37 54.36 37 2 C37.33 2 37.66 2 38 2 C38 53.48 38 104.96 38 158 C25.46 158 12.92 158 0 158 C0 105.86 0 53.72 0 0 Z " fill="#133763" transform="translate(1325,442)"/>
<path d="M0 0 C0.66 0 1.32 0 2 0 C2 63.69 2 127.38 2 193 C13.55 193 25.1 193 37 193 C37 169.57 37 146.14 37 122 C37.33 122 37.66 122 38 122 C38 146.09 38 170.18 38 195 C25.46 195 12.92 195 0 195 C0 130.65 0 66.3 0 0 Z " fill="#26426E" transform="translate(369,405)"/>
<path d="M0 0 C26.07 0 52.14 0 79 0 C79 12.54 79 25.08 79 38 C40.72 38 2.44 38 -37 38 C-36.67 37.34 -36.34 36.68 -36 36 C1.29 36 38.58 36 77 36 C77 24.78 77 13.56 77 2 C71.60914063 2.02320313 66.21828125 2.04640625 60.6640625 2.0703125 C57.25520354 2.08052779 53.84636337 2.09015545 50.4375 2.09765625 C45.02307227 2.10962636 39.60871197 2.12380886 34.19433594 2.15087891 C29.83068476 2.17255993 25.46710587 2.18455858 21.103405 2.18975449 C19.43597653 2.19345879 17.76855215 2.20069207 16.10115433 2.21146011 C13.77128705 2.2259122 11.44172106 2.22798061 9.11181641 2.22705078 C8.07064415 2.23783661 8.07064415 2.23783661 7.00843811 2.24884033 C2.22810432 2.22810432 2.22810432 2.22810432 0 0 Z " fill="#14366A" transform="translate(988,562)"/>
<path d="M0 0 C38.28 0 76.56 0 116 0 C116 12.21 116 24.42 116 37 C89.6 37 63.2 37 36 37 C36 52.18 36 67.36 36 83 C35.67 83 35.34 83 35 83 C34.83216748 76.46736699 34.67220524 69.93457595 34.51782227 63.40161133 C34.46431608 61.17728264 34.40898037 58.9529972 34.35180664 56.72875977 C34.2701354 53.53932018 34.19495612 50.34978501 34.12109375 47.16015625 C34.09405869 46.15912369 34.06702362 45.15809113 34.03916931 44.12672424 C34.01907303 43.20584518 33.99897675 42.28496613 33.97827148 41.33618164 C33.95828598 40.52121719 33.93830048 39.70625275 33.91770935 38.86659241 C34 37 34 37 35 36 C37.46444057 35.90499452 39.90074626 35.87442015 42.36547852 35.88647461 C43.13615662 35.88632858 43.90683472 35.88618256 44.7008667 35.8860321 C47.26024139 35.8867314 49.8195442 35.89452455 52.37890625 35.90234375 C54.14867615 35.90420787 55.91844656 35.9056318 57.68821716 35.90663147 C62.35551366 35.91045712 67.02277923 35.9202878 71.69006348 35.93133545 C76.44897035 35.94154856 81.20788221 35.94612887 85.96679688 35.95117188 C95.31121371 35.96191003 104.65559945 35.9795072 114 36 C114 24.78 114 13.56 114 2 C76.38 2 38.76 2 0 2 C0 1.34 0 0.68 0 0 Z " fill="#092D5A" transform="translate(371,405)"/>
<path d="M0 0 C1.32 0.33 2.64 0.66 4 1 C4 52.48 4 103.96 4 157 C42.115 157.495 42.115 157.495 81 158 C81 158.33 81 158.66 81 159 C54.93 159 28.86 159 2 159 C2 107.19 2 55.38 2 2 C1.34 2 0.68 2 0 2 C0 1.34 0 0.68 0 0 Z " fill="#CADAE8" transform="translate(986,403)"/>
<path d="M0 0 C0.33 0 0.66 0 1 0 C1 63.03 1 126.06 1 191 C-16.325 191.495 -16.325 191.495 -34 192 C-44.40009124 180.13412409 -44.40009124 180.13412409 -46.73828125 174.7734375 C-49.88736542 168.03491885 -53.76453619 162.09715356 -58 156 C-59.17049655 154.25255932 -60.33756091 152.50281102 -61.5 150.75 C-61.9846875 150.02296875 -62.469375 149.2959375 -62.96875 148.546875 C-63.47921875 147.78117187 -63.47921875 147.78117187 -64 147 C-63.505 146.01 -63.505 146.01 -63 145 C-62.278125 146.093125 -61.55625 147.18625 -60.8125 148.3125 C-58.99121617 150.90913037 -58.00401969 151.99767751 -55.1875 153.625 C-54.465625 154.07875 -53.74375 154.5325 -53 155 C-52.875 157.5 -52.875 157.5 -53 160 C-51.23518482 162.26904809 -49.42943419 163.3803772 -47 165 C-46.62690101 166.65821773 -46.29299023 168.32577014 -46 170 C-45.34 170.66 -44.68 171.32 -44 172 C-42.82806413 173.75366788 -41.68580472 175.52729099 -40.5625 177.3125 C-39.96566406 178.25738281 -39.36882813 179.20226562 -38.75390625 180.17578125 C-37.60361846 182.02802639 -36.48496081 183.90037414 -35.40234375 185.79296875 C-34.18993659 188.1196505 -34.18993659 188.1196505 -32 189 C-16.16 189.495 -16.16 189.495 0 190 C0 127.3 0 64.6 0 0 Z " fill="#0D437C" transform="translate(745,407)"/>
<path d="M0 0 C0.99 0.99 1.98 1.98 3 3 C1.68 3 0.36 3 -1 3 C-1 67.02 -1 131.04 -1 197 C-1.33 197 -1.66 197 -2 197 C-2.04666293 171.60970788 -2.08196079 146.21942216 -2.10362434 120.82909584 C-2.11394921 109.04067173 -2.12803258 97.25227423 -2.15087891 85.46386719 C-2.17077582 75.1924457 -2.18370763 64.92104347 -2.18817699 54.64960325 C-2.19079066 49.20793295 -2.19695888 43.76631775 -2.21146011 38.32466507 C-2.22498566 33.2079217 -2.22923288 28.09125639 -2.22621536 22.97449684 C-2.22676779 21.09186568 -2.23077505 19.20923204 -2.23841095 17.32661629 C-2.24829366 14.76546777 -2.24599352 12.20461789 -2.24050903 9.64346313 C-2.24633472 8.8905539 -2.2521604 8.13764467 -2.25816262 7.36192 C-2.22824242 2.22824242 -2.22824242 2.22824242 0 0 Z " fill="#FCFCFE" transform="translate(589,402)"/>
<path d="M0 0 C0.495 0.99 0.495 0.99 1 2 C-1.05233685 4.2477975 -2.00667261 5.0022242 -5 6 C-5.598125 6.78375 -6.19625 7.5675 -6.8125 8.375 C-9.30255118 11.36306142 -11.52694738 12.33582895 -15 14 C-18.24689909 16.6739169 -19.88411751 19.58601041 -21.85546875 23.26953125 C-23.1061122 25.16043585 -24.38637212 26.26233284 -26.1875 27.625 C-29.19281374 29.73089988 -29.19281374 29.73089988 -29.875 32.8125 C-29.91625 33.534375 -29.9575 34.25625 -30 35 C-30.61875 35.061875 -31.2375 35.12375 -31.875 35.1875 C-34.22180696 35.80080298 -34.22180696 35.80080298 -35.01953125 38.21875 C-35.96857233 40.9108506 -36.89342884 43.6100397 -37.8125 46.3125 C-39.61771095 51.33984219 -41.94581573 55.63151512 -45 60 C-46.15176092 56.54471725 -45.9114636 56.15454929 -44.4453125 53.0078125 C-44.08268311 52.22680176 -43.72005371 51.44579102 -43.34643555 50.64111328 C-42.94336182 49.8107959 -42.54028809 48.98047852 -42.125 48.125 C-41.7122583 47.27019043 -41.2995166 46.41538086 -40.87426758 45.53466797 C-31.85529265 27.29785838 -17.8163397 10.26272161 0 0 Z " fill="#0E3165" transform="translate(123,401)"/>
<path d="M0 0 C0.99 0.99 1.98 1.98 3 3 C3 3.99 3 4.98 3 6 C2.34 6 1.68 6 1 6 C1 45.6 1 85.2 1 126 C0.67 126 0.34 126 0 126 C0 84.42 0 42.84 0 0 Z " fill="#E0EAFE" transform="translate(627,474)"/>
<path d="M0 0 C29.62207551 -2.38021457 29.62207551 -2.38021457 36.55957031 1.39160156 C40.57589872 5.23027247 42.35552086 9.77986063 44 15 C44.6629053 16.66816629 45.32776482 18.33557154 46 20 C44.948125 19.0409375 44.948125 19.0409375 43.875 18.0625 C40.77158767 15.83613898 38.75379861 15.34919057 35 15 C35 14.34 35 13.68 35 13 C35.99 13 36.98 13 38 13 C35.525 8.05 35.525 8.05 33 3 C22.11 2.67 11.22 2.34 0 2 C0 1.34 0 0.68 0 0 Z " fill="#082C59" transform="translate(590,405)"/>
<path d="M0 0 C2.66666667 2.66666667 5.33333333 5.33333333 8 8 C8.8353125 8.7115625 8.8353125 8.7115625 9.6875 9.4375 C11.42064455 11.50076732 11.53008879 13.38192326 12 16 C14.03268602 18.16343011 14.03268602 18.16343011 17 20 C17.37309899 21.65821773 17.70700977 23.32577014 18 25 C18.66 25.66 19.32 26.32 20 27 C21.79994108 29.71321167 23.51526059 32.4741822 25.2421875 35.234375 C26.60550969 37.37933524 28.01346784 39.4417247 29.5 41.5 C30.2425 42.7375 30.2425 42.7375 31 44 C30.67 44.99 30.34 45.98 30 47 C28.99739583 45.49609375 27.99479167 43.9921875 26.9921875 42.48828125 C26.34121094 41.51197754 25.69023438 40.53567383 25.01953125 39.52978516 C23.58143109 37.37230748 22.14393796 35.21442506 20.70703125 33.05615234 C17.09206407 27.62812292 13.46913421 22.20615303 9.8203125 16.80078125 C9.17594238 15.84324951 8.53157227 14.88571777 7.86767578 13.89916992 C6.63797355 12.07262006 5.40466369 10.248493 4.16748047 8.42700195 C3.61721191 7.60804443 3.06694336 6.78908691 2.5 5.9453125 C2.0153125 5.22875488 1.530625 4.51219727 1.03125 3.77392578 C0 2 0 2 0 0 Z " fill="#0F3061" transform="translate(681,552)"/>
<path d="M0 0 C0.66 0.33 1.32 0.66 2 1 C-11.2 14.2 -24.4 27.4 -38 41 C-38 38 -38 38 -35.91796875 35.6953125 C-35.01691406 34.84710937 -34.11585938 33.99890625 -33.1875 33.125 C-30.49283703 30.58198473 -28.25747909 28.43384304 -26.36328125 25.2421875 C-25 23 -25 23 -22 22 C-20.28769752 20.38025441 -18.62836738 18.7041054 -17 17 C-16.47664063 16.49726562 -15.95328125 15.99453125 -15.4140625 15.4765625 C-12.24164583 12.47323015 -12.24164583 12.47323015 -9.9375 8.8125 C-8.58357186 6.1949056 -6.52560659 5.44320376 -4 4 C-2.63015802 2.70420353 -1.2848951 1.38007251 0 0 Z " fill="#F0FDFE" transform="translate(277,548)"/>
<path d="M0 0 C0.74515869 0.00483398 1.49031738 0.00966797 2.25805664 0.01464844 C12.90237948 0.1307641 12.90237948 0.1307641 17.625 1.125 C18.84765625 3.171875 18.84765625 3.171875 19.625 5.125 C18.62847412 4.96652588 17.63194824 4.80805176 16.60522461 4.64477539 C12.71746886 4.09112404 8.86842666 3.91899191 4.94140625 3.80859375 C4.24103745 3.78781265 3.54066864 3.76703156 2.81907654 3.74562073 C0.60863894 3.68087535 -1.60190485 3.62159392 -3.8125 3.5625 C-5.32227607 3.51924319 -6.83204188 3.47562677 -8.34179688 3.43164062 C-12.01942196 3.32527252 -15.69716291 3.22379998 -19.375 3.125 C-13.27251961 -0.13749902 -6.76625575 -0.04567166 0 0 Z " fill="#1D3F71" transform="translate(1169.375,400.875)"/>
<path d="M0 0 C0 0.99 0 1.98 0 3 C-6.625 7 -6.625 7 -10 7 C-10 7.66 -10 8.32 -10 9 C-11.7578125 10.3671875 -11.7578125 10.3671875 -14.125 11.875 C-15.34896484 12.66390625 -15.34896484 12.66390625 -16.59765625 13.46875 C-17.39042969 13.9740625 -18.18320313 14.479375 -19 15 C-20.18971392 15.78833569 -21.37762936 16.57940341 -22.5625 17.375 C-23.366875 17.91125 -24.17125 18.4475 -25 19 C-25.66 18.67 -26.32 18.34 -27 18 C-20.81791306 11.26520992 -9.68635066 0 0 0 Z " fill="#0C326A" transform="translate(1133,410)"/>
<path d="M0 0 C0 2.64 0 5.28 0 8 C-0.33 7.34 -0.66 6.68 -1 6 C-1.556875 6.61875 -2.11375 7.2375 -2.6875 7.875 C-5.06645178 10.06106379 -6.96357096 10.98785699 -10 12 C-10 12.99 -10 13.98 -10 15 C-14.34285714 19 -14.34285714 19 -17 19 C-17.66 20.32 -18.32 21.64 -19 23 C-19.66 22.01 -20.32 21.02 -21 20 C-18.17317491 17.14852788 -15.34313037 14.30029574 -12.51000977 11.45507812 C-11.54589335 10.48592079 -10.58267471 9.51586952 -9.62036133 8.54492188 C-8.24013641 7.15262088 -6.85645022 5.7637538 -5.47265625 4.375 C-4.64000244 3.53710938 -3.80734863 2.69921875 -2.94946289 1.8359375 C-1 0 -1 0 0 0 Z " fill="#103B70" transform="translate(280,548)"/>
<path d="M0 0 C12.04394251 -0.12812705 23.98168818 0.20446163 36 1 C36 1.33 36 1.66 36 2 C30.53926507 3.23033751 25.26226398 3.1839739 19.6875 3.1875 C18.17639648 3.20586914 18.17639648 3.20586914 16.63476562 3.22460938 C10.7269745 3.23615555 5.65978217 2.71078242 0 1 C0 0.67 0 0.34 0 0 Z " fill="#0F3163" transform="translate(1150,600)"/>
<path d="M0 0 C1.93130605 1.85405381 3.77698532 3.72729504 5.47265625 5.80078125 C12.76924873 14.68433948 21.05689632 19.65049488 32 23 C31.67 23.66 31.34 24.32 31 25 C28.69 25 26.38 25 24 25 C24 24.01 24 23.02 24 22 C23.195625 21.814375 22.39125 21.62875 21.5625 21.4375 C13.22319112 18.07251571 6.2344837 11.22412164 1 4 C0.28125 1.73046875 0.28125 1.73046875 0 0 Z " fill="#0B2957" transform="translate(1125,540)"/>
<path d="M0 0 C0.66 0.33 1.32 0.66 2 1 C2.3125 4.1875 2.3125 4.1875 2 8 C-0.4375 10.8125 -0.4375 10.8125 -3 13 C-3.33 13.66 -3.66 14.32 -4 15 C-5.99609375 15.88671875 -5.99609375 15.88671875 -8.4375 16.6875 C-9.24058594 16.95949219 -10.04367187 17.23148437 -10.87109375 17.51171875 C-13 18 -13 18 -15 17 C-14.00419922 16.41605469 -14.00419922 16.41605469 -12.98828125 15.8203125 C-6.1951671 11.51635404 -2.86813642 7.50244106 0 0 Z " fill="#0A2E65" transform="translate(885,479)"/>
<path d="M0 0 C0 3.66184524 -0.919642 5.02806 -3 8 C-4.32848691 9.00642948 -5.66150329 10.00692179 -7 11 C-7.309375 11.680625 -7.61875 12.36125 -7.9375 13.0625 C-9 15 -9 15 -11.5 16.3125 C-14 17 -14 17 -16 16 C-10.72 10.72 -5.44 5.44 0 0 Z " fill="#042E67" transform="translate(226,602)"/>
<path d="M0 0 C0.99 0.33 1.98 0.66 3 1 C0.04974274 4.00803572 -2.91149669 7.0050179 -5.875 10 C-6.71675781 10.85851562 -7.55851563 11.71703125 -8.42578125 12.6015625 C-9.23144531 13.41367187 -10.03710938 14.22578125 -10.8671875 15.0625 C-11.61081543 15.81660156 -12.35444336 16.57070313 -13.12060547 17.34765625 C-15 19 -15 19 -17 19 C-15.43387807 15.15588253 -12.97905879 12.84049791 -10 10 C-9.113125 9.071875 -8.22625 8.14375 -7.3125 7.1875 C-5 5 -5 5 -3 5 C-2.690625 4.360625 -2.38125 3.72125 -2.0625 3.0625 C-1 1 -1 1 0 0 Z " fill="#C1D2E0" transform="translate(224,601)"/>
<path d="M0 0 C4.38976882 1.78842434 7.69787231 4.8299737 10.13623047 8.89355469 C11.0886117 11.21609433 11.23101866 12.82869398 11.1953125 15.328125 C11.18564453 16.52695312 11.18564453 16.52695312 11.17578125 17.75 C11.15902344 18.575 11.14226563 19.4 11.125 20.25 C11.11597656 21.09046875 11.10695313 21.9309375 11.09765625 22.796875 C11.07415817 24.86470604 11.03828908 26.93238995 11 29 C10.67 29 10.34 29 10 29 C9.90203125 27.9378125 9.8040625 26.875625 9.703125 25.78125 C8.64733121 15.42050796 7.1209852 8.1382688 0 0 Z " fill="#09285B" transform="translate(877,446)"/>
<path d="M0 0 C0.66 0 1.32 0 2 0 C2 0.66 2 1.32 2 2 C2.99 2 3.98 2 5 2 C5.33 3.98 5.66 5.96 6 8 C6.99 8 7.98 8 9 8 C9.29003906 8.83144531 9.29003906 8.83144531 9.5859375 9.6796875 C9.84632813 10.40414063 10.10671875 11.12859375 10.375 11.875 C10.63023437 12.59429687 10.88546875 13.31359375 11.1484375 14.0546875 C11.93877783 16.18157994 11.93877783 16.18157994 14 18 C13.67 18.99 13.34 19.98 13 21 C10.82581478 17.88016876 8.66195438 14.75331652 6.5 11.625 C5.87996094 10.73554688 5.25992188 9.84609375 4.62109375 8.9296875 C4.03457031 8.07890625 3.44804688 7.228125 2.84375 6.3515625 C2.29912109 5.56604004 1.75449219 4.78051758 1.19335938 3.97119141 C0 2 0 2 0 0 Z " fill="#0A2E5E" transform="translate(639,490)"/>
<path d="M0 0 C0.66 0.99 1.32 1.98 2 3 C-0.80804268 5.96404505 -3.18315774 8.44499019 -7 10 C-7 10.66 -7 11.32 -7 12 C-8.65 12.33 -10.3 12.66 -12 13 C-8.19524578 8.43969176 -4.25030379 4.14910608 0 0 Z " fill="#214377" transform="translate(246,581)"/>
<path d="M0 0 C0.33 0 0.66 0 1 0 C1.51480708 6.94989552 -0.21029141 11.69234563 -3 18 C-3.33 18.99 -3.66 19.98 -4 21 C-4.66 21 -5.32 21 -6 21 C-6.99 23.475 -6.99 23.475 -8 26 C-8.66 25.67 -9.32 25.34 -10 25 C-9.52949219 24.11699219 -9.05898437 23.23398437 -8.57421875 22.32421875 C-4.76466555 15.03149978 -1.73697956 8.10590463 0 0 Z " fill="#153364" transform="translate(1225,518)"/>
<path d="M0 0 C2.22189824 2.22189824 2.92598892 4.08482708 4 7 C4.99 7 5.98 7 7 7 C6.42415568 9.38564077 5.77772405 11.66682784 5 14 C5.27571139 16.00875442 5.60235737 18.01178687 6 20 C3.30434515 17.30434515 2.9017293 14.78319847 1.875 11.125 C1.52179688 9.89007812 1.16859375 8.65515625 0.8046875 7.3828125 C0 4 0 4 0 0 Z " fill="#093066" transform="translate(1079,523)"/>
<path d="M0 0 C4.45282459 4.08583355 7.62155592 8.61367649 10.875 13.6875 C11.38546875 14.45900391 11.8959375 15.23050781 12.421875 16.02539062 C13.13730469 17.13237305 13.13730469 17.13237305 13.8671875 18.26171875 C14.30144043 18.93162842 14.73569336 19.60153809 15.18310547 20.29174805 C15.45268066 20.85547119 15.72225586 21.41919434 16 22 C15.67 22.66 15.34 23.32 15 24 C14.68772461 23.53625977 14.37544922 23.07251953 14.05371094 22.59472656 C12.62369845 20.47669918 11.18692645 18.36334221 9.75 16.25 C9.25886719 15.52039063 8.76773438 14.79078125 8.26171875 14.0390625 C6.19385511 11.00619583 4.2972352 8.28542453 1.640625 5.734375 C0 4 0 4 0 0 Z " fill="#102C5D" transform="translate(690,505)"/>
<path d="M0 0 C-2.85399122 1.90266081 -5.22092796 2.88271039 -8.4375 4 C-11.7526035 5.15464829 -14.89574742 6.35614048 -18 8 C-18.66 7.01 -19.32 6.02 -20 5 C-18.68 4.67 -17.36 4.34 -16 4 C-16 3.34 -16 2.68 -16 2 C-10.75462454 0.53129487 -5.44387164 -0.16496581 0 0 Z " fill="#0B3067" transform="translate(1160,440)"/>
<path d="M0 0 C3.68646141 1.45855647 5.16143971 3.30229045 7.25 6.625 C7.77078125 7.44226563 8.2915625 8.25953125 8.828125 9.1015625 C9.21484375 9.72804688 9.6015625 10.35453125 10 11 C9.67 11.66 9.34 12.32 9 13 C8.46375 12.360625 7.9275 11.72125 7.375 11.0625 C4.55632807 8.61470596 2.66139268 8.33285388 -1 8 C-1 7.34 -1 6.68 -1 6 C-0.01 6 0.98 6 2 6 C1.34 5.01 0.68 4.02 0 3 C0 2.01 0 1.02 0 0 Z " fill="#09346C" transform="translate(626,412)"/>
<path d="M0 0 C4.17781634 3.87671246 7.22712043 8.03587533 10.3125 12.8125 C10.76689453 13.50537109 11.22128906 14.19824219 11.68945312 14.91210938 C12.79831476 16.6045824 13.89991438 18.30180958 15 20 C14.67 20.66 14.34 21.32 14 22 C13.52949219 21.30132812 13.05898438 20.60265625 12.57421875 19.8828125 C11.95160156 18.97273438 11.32898438 18.06265625 10.6875 17.125 C10.07261719 16.22007812 9.45773437 15.31515625 8.82421875 14.3828125 C7.05086051 11.80028615 7.05086051 11.80028615 4 10 C2.44511995 6.71083066 1.1499746 3.44992381 0 0 Z " fill="#0E2A5A" transform="translate(636,425)"/>
<path d="M0 0 C2.70239953 2.70239953 3.4274359 5.81824127 4.5625 9.375 C4.78357422 10.04789063 5.00464844 10.72078125 5.23242188 11.4140625 C6.26558373 14.58533876 7.25765713 17.74703687 8 21 C3.66747467 17.07404596 0.4463102 11.39086898 -0.3203125 5.56640625 C-0.3125 3.375 -0.3125 3.375 0 0 Z " fill="#0C295C" transform="translate(1117,519)"/>
<path d="M0 0 C1 2 1 2 0.3984375 4.3203125 C-1.80918196 10.37020095 -4.30596304 15.71631598 -8 21 C-9.15661707 17.53014878 -8.90024784 17.15859213 -7.3828125 14.0234375 C-7.02316406 13.270625 -6.66351563 12.5178125 -6.29296875 11.7421875 C-5.90753906 10.96101563 -5.52210937 10.17984375 -5.125 9.375 C-4.55845703 8.19164062 -4.55845703 8.19164062 -3.98046875 6.984375 C-1.1761576 1.1761576 -1.1761576 1.1761576 0 0 Z " fill="#0B2B5C" transform="translate(86,440)"/>
<path d="M0 0 C7.16707877 0.32577631 12.76927124 3.65443628 19 7 C16.09905209 8.45047396 14.44027404 7.45356803 11.375 6.5625 C10.37210938 6.27503906 9.36921875 5.98757813 8.3359375 5.69140625 C7.17964844 5.34916016 7.17964844 5.34916016 6 5 C6 4.01 6 3.02 6 2 C3.03 1.505 3.03 1.505 0 1 C0 0.67 0 0.34 0 0 Z " fill="#0D2D62" transform="translate(879,408)"/>
<path d="M0 0 C0.66 0.33 1.32 0.66 2 1 C-2.75 5 -2.75 5 -5 5 C-5.33 5.66 -5.66 6.32 -6 7 C-7.98 7 -9.96 7 -12 7 C-12.33 7.66 -12.66 8.32 -13 9 C-13.99 8.01 -14.98 7.02 -16 6 C-14.77023437 5.60167969 -14.77023437 5.60167969 -13.515625 5.1953125 C-12.43796875 4.84210937 -11.3603125 4.48890625 -10.25 4.125 C-9.18265625 3.77695312 -8.1153125 3.42890625 -7.015625 3.0703125 C-4.06935483 2.106061 -4.06935483 2.106061 -1.734375 0.8046875 C-1.16203125 0.53914062 -0.5896875 0.27359375 0 0 Z " fill="#E0EBF3" transform="translate(892,526)"/>
<path d="M0 0 C7.59 0 15.18 0 23 0 C22.67 0.99 22.34 1.98 22 3 C14.74 2.34 7.48 1.68 0 1 C0 0.67 0 0.34 0 0 Z " fill="#E6F0F5" transform="translate(1160,399)"/>
<path d="M0 0 C0.33 1.32 0.66 2.64 1 4 C0.195625 4.391875 -0.60875 4.78375 -1.4375 5.1875 C-4.23064738 6.76948191 -4.23064738 6.76948191 -4.8125 9.6875 C-4.874375 10.450625 -4.93625 11.21375 -5 12 C-5.33 11.34 -5.66 10.68 -6 10 C-7.65 10.66 -9.3 11.32 -11 12 C-7.49102731 7.81576108 -3.91939465 3.80411834 0 0 Z " fill="#1B3E6F" transform="translate(258,569)"/>
<path d="M0 0 C12.85421412 5.96583144 12.85421412 5.96583144 17 11 C13.95962992 9.92692821 11.73967565 8.80758635 9.125 6.875 C5.44926745 4.66956047 3.21231082 4.66301513 -1 5 C-0.34 4.67 0.32 4.34 1 4 C0.67 2.68 0.34 1.36 0 0 Z " fill="#133362" transform="translate(1210,409)"/>
<path d="M0 0 C0.99 0 1.98 0 3 0 C4.92118227 5.63546798 4.92118227 5.63546798 5.5 8.3125 C5.665 8.869375 5.83 9.42625 6 10 C6.66 10.33 7.32 10.66 8 11 C7.67 12.32 7.34 13.64 7 15 C6.0115904 13.44333045 5.03464918 11.87937574 4.0625 10.3125 C3.51722656 9.44238281 2.97195313 8.57226562 2.41015625 7.67578125 C1.02832828 5.05375311 0.41519827 2.91689925 0 0 Z " fill="#103264" transform="translate(1085,544)"/>
<path d="M0 0 C1.79398267 0.95399078 3.58511655 1.91334026 5.375 2.875 C6.37273437 3.40867187 7.37046875 3.94234375 8.3984375 4.4921875 C11 6 11 6 13 8 C9.12858486 9.29047171 7.68452784 8.6542778 4 7 C0 2.78947368 0 2.78947368 0 0 Z " fill="#EAF4FA" transform="translate(1116,586)"/>
<path d="M0 0 C0.33 0 0.66 0 1 0 C1.22084624 6.09781001 1.01167675 11.21642935 -1 17 C-1.66 17 -2.32 17 -3 17 C-2.85950482 15.52031676 -2.71245174 14.04125484 -2.5625 12.5625 C-2.48128906 11.73878906 -2.40007812 10.91507813 -2.31640625 10.06640625 C-2 8 -2 8 -1 7 C-0.63239269 4.67182036 -0.29758419 2.3381615 0 0 Z " fill="#092D60" transform="translate(1263,514)"/>
<path d="M0 0 C0 3.48379452 -0.39455374 3.82622343 -2.75 6.1875 C-3.26046875 6.71730469 -3.7709375 7.24710938 -4.296875 7.79296875 C-6 9 -6 9 -10 9 C-9.875 7.125 -9.875 7.125 -9 5 C-7.02253397 4.26919734 -5.01927511 3.60578253 -3 3 C-1.16310524 1.50113129 -1.16310524 1.50113129 0 0 Z " fill="#0A3368" transform="translate(1237,573)"/>
<path d="M0 0 C0.66 0.33 1.32 0.66 2 1 C2.3125 4.3125 2.3125 4.3125 2 8 C-0.5 9.9375 -0.5 9.9375 -3 11 C-4 8 -4 8 -3.22265625 5.95703125 C-2.83980469 5.24933594 -2.45695313 4.54164063 -2.0625 3.8125 C-1.68222656 3.09707031 -1.30195312 2.38164062 -0.91015625 1.64453125 C-0.60980469 1.10183594 -0.30945313 0.55914062 0 0 Z " fill="#11386E" transform="translate(885,479)"/>
<path d="M0 0 C0.33 0.99 0.66 1.98 1 3 C-0.75 5.6875 -0.75 5.6875 -3 8 C-3.99 8 -4.98 8 -6 8 C-6.33 8.99 -6.66 9.98 -7 11 C-7.66 10.67 -8.32 10.34 -9 10 C-6.03 6.7 -3.06 3.4 0 0 Z " fill="#092D60" transform="translate(1105,429)"/>
<path d="M0 0 C4.29 0 8.58 0 13 0 C13 0.66 13 1.32 13 2 C12.01 2 11.02 2 10 2 C9.67 2.66 9.34 3.32 9 4 C6.03 3.01 3.06 2.02 0 1 C0 0.67 0 0.34 0 0 Z " fill="#E6EEF6" transform="translate(1197,404)"/>
<path d="M0 0 C2.31 0.33 4.62 0.66 7 1 C5.35 2.65 3.7 4.3 2 6 C0.68 5.34 -0.64 4.68 -2 4 C-1.34 2.68 -0.68 1.36 0 0 Z " fill="#EBF2F4" transform="translate(1108,419)"/>
<path d="M0 0 C0.33 0.66 0.66 1.32 1 2 C0.10333658 4.24310013 -0.89146683 6.44754321 -1.9375 8.625 C-2.50339844 9.81351562 -3.06929687 11.00203125 -3.65234375 12.2265625 C-4.09707031 13.14179688 -4.54179688 14.05703125 -5 15 C-6.12764117 11.66279166 -5.87990246 9.68716506 -4.75 6.375 C-4.49734375 5.59898437 -4.2446875 4.82296875 -3.984375 4.0234375 C-3 2 -3 2 0 0 Z " fill="#0E2C5D" transform="translate(1125,463)"/>
<path d="M0 0 C2.31 0.33 4.62 0.66 7 1 C7.33 1.99 7.66 2.98 8 4 C8.99 4.33 9.98 4.66 11 5 C9 6 9 6 6.8359375 5.44140625 C6.02382813 5.15136719 5.21171875 4.86132812 4.375 4.5625 C3.55773437 4.27503906 2.74046875 3.98757813 1.8984375 3.69140625 C1.27195312 3.46324219 0.64546875 3.23507812 0 3 C0 2.01 0 1.02 0 0 Z " fill="#0E3169" transform="translate(866,440)"/>
<path d="M0 0 C0.66 0.33 1.32 0.66 2 1 C-1.66666667 4.66666667 -5.33333333 8.33333333 -9 12 C-9 9 -9 9 -7.03125 6.73828125 C-5.77828125 5.53751953 -5.77828125 5.53751953 -4.5 4.3125 C-3.6646875 3.50425781 -2.829375 2.69601562 -1.96875 1.86328125 C-1.3190625 1.24839844 -0.669375 0.63351562 0 0 Z " fill="#EFFBFE" transform="translate(1241,571)"/>
<path d="M0 0 C0.66 0.33 1.32 0.66 2 1 C0.68 4.3 -0.64 7.6 -2 11 C-4 7 -4 7 -3.8125 4.9375 C-2.89199398 2.74244718 -1.78403777 1.55133719 0 0 Z " fill="#E6F0F7" transform="translate(1085,455)"/>
<path d="M0 0 C3.08089673 2.77280706 4.68775452 5.06326356 6 9 C4.1875 8.8125 4.1875 8.8125 2 8 C0.1875 5.625 0.1875 5.625 -1 3 C-0.67 2.01 -0.34 1.02 0 0 Z " fill="#0B3063" transform="translate(651,447)"/>
<path d="M0 0 C0.33 0.99 0.66 1.98 1 3 C0.0479279 4.00596297 -0.91187346 5.00461563 -1.875 6 C-2.40867188 6.556875 -2.94234375 7.11375 -3.4921875 7.6875 C-5 9 -5 9 -7 9 C-5.44499019 5.18315774 -2.96404505 2.80804268 0 0 Z " fill="#D0DEE8" transform="translate(214,611)"/>
<path d="M0 0 C4.2742558 1.5830577 6.26531794 4.50568404 9 8 C6 8 6 8 4.39453125 6.7578125 C3.87246094 6.21898437 3.35039063 5.68015625 2.8125 5.125 C2.28269531 4.59132813 1.75289062 4.05765625 1.20703125 3.5078125 C0 2 0 2 0 0 Z " fill="#1F3F70" transform="translate(1232,424)"/>
<path d="M0 0 C0 0.99 0 1.98 0 3 C-1.33333333 4.33333333 -2.66666667 5.66666667 -4 7 C-4 7.99 -4 8.98 -4 10 C-4.99 10.33 -5.98 10.66 -7 11 C-7 7 -7 7 -5.46875 5.078125 C-4.8190625 4.47484375 -4.169375 3.8715625 -3.5 3.25 C-2.8503125 2.63640625 -2.200625 2.0228125 -1.53125 1.390625 C-1.0259375 0.93171875 -0.520625 0.4728125 0 0 Z " fill="#153765" transform="translate(274,553)"/>
<path d="M0 0 C0.99 0.66 1.98 1.32 3 2 C3 3.66666667 3 5.33333333 3 7 C1.02 6.01 -0.96 5.02 -3 4 C-3 3.34 -3 2.68 -3 2 C-2.01 1.34 -1.02 0.68 0 0 Z " fill="#EBF1F7" transform="translate(1144,553)"/>
<path d="M0 0 C4.455 0.99 4.455 0.99 9 2 C8.67 2.66 8.34 3.32 8 4 C5.69 4 3.38 4 1 4 C0.67 2.68 0.34 1.36 0 0 Z " fill="#0F3363" transform="translate(1148,561)"/>
<path d="M0 0 C3.25524265 3.02272532 5.61820737 6.25718301 8 10 C7.67 10.66 7.34 11.32 7 12 C3 7.25 3 7.25 3 5 C2.01 4.67 1.02 4.34 0 4 C0 2.68 0 1.36 0 0 Z " fill="#0E2D5B" transform="translate(682,493)"/>
<path d="M0 0 C0.99 0 1.98 0 3 0 C4 3 4 3 3.1875 5.0625 C2 7 2 7 0 9 C0 6.03 0 3.06 0 0 Z " fill="#103A74" transform="translate(1116,476)"/>
<path d="M0 0 C0.99 0.495 0.99 0.495 2 1 C2.59355614 3.64860427 2.74209269 6.29197322 3 9 C2.01 9.33 1.02 9.66 0 10 C0 6.7 0 3.4 0 0 Z " fill="#ECFCFE" transform="translate(487,432)"/>
<path d="M0 0 C0.99 0.33 1.98 0.66 3 1 C0.525 5.455 0.525 5.455 -2 10 C-2.66 9.34 -3.32 8.68 -4 8 C-2.68 5.36 -1.36 2.72 0 0 Z " fill="#E8F3FA" transform="translate(90,428)"/>
<path d="M0 0 C-4.17949673 2.78633115 -6.93375326 4 -12 4 C-11 2 -11 2 -8.25 0.875 C-5.29813104 0.08026605 -3.02780163 -0.17810598 0 0 Z " fill="#0B2B5E" transform="translate(154,389)"/>
<path d="M0 0 C1.485 0.99 1.485 0.99 3 2 C3 2.66 3 3.32 3 4 C2.01 4 1.02 4 0 4 C0 6.64 0 9.28 0 12 C-0.33 12 -0.66 12 -1 12 C-1.02698189 10.37509046 -1.04638757 8.75005367 -1.0625 7.125 C-1.07410156 6.22007812 -1.08570313 5.31515625 -1.09765625 4.3828125 C-1 2 -1 2 0 0 Z " fill="#ECEFF7" transform="translate(630,479)"/>
<path d="M0 0 C2.56616632 3.84924948 2.55097676 6.4349304 3 11 C0.50875735 8.83370204 -0.59924482 7.30623023 -1 4 C-0.5625 1.75 -0.5625 1.75 0 0 Z " fill="#D9E6F2" transform="translate(884,456)"/>
<path d="M0 0 C2.96404505 2.80804268 5.44499019 5.18315774 7 9 C6.34 9.66 5.68 10.32 5 11 C4.35165346 9.730447 3.70642185 8.45930294 3.0625 7.1875 C2.70285156 6.47980469 2.34320312 5.77210938 1.97265625 5.04296875 C1 3 1 3 0 0 Z " fill="#163665" transform="translate(636,425)"/>
<path d="M0 0 C0.33 0.99 0.66 1.98 1 3 C-1.64 3 -4.28 3 -7 3 C-7.33 2.34 -7.66 1.68 -8 1 C-5.10765685 0.17361624 -3.11257569 0 0 0 Z " fill="#EEFCFE" transform="translate(486,402)"/>
<path d="M0 0 C2.59482129 2.59482129 2.69990302 4.39883625 3 8 C2.34 8.66 1.68 9.32 1 10 C-0.60725635 6.78548731 -0.05748185 3.56387464 0 0 Z " fill="#113469" transform="translate(1117,519)"/>
<path d="M0 0 C0.66 0 1.32 0 2 0 C1.45773019 3.79588866 -0.20127563 5.47211993 -3 8 C-3.33 6.68 -3.66 5.36 -4 4 C-3.01 3.67 -2.02 3.34 -1 3 C-0.67 2.01 -0.34 1.02 0 0 Z " fill="#0C2F63" transform="translate(1129,455)"/>
<path d="M0 0 C1.32 0 2.64 0 4 0 C4.66 1.98 5.32 3.96 6 6 C5.01 6.495 5.01 6.495 4 7 C2.02 3.535 2.02 3.535 0 0 Z " fill="#DEE9F1" transform="translate(655,452)"/>
<path d="M0 0 C0.99 0.33 1.98 0.66 3 1 C3 3.97 3 6.94 3 10 C1.19669467 6.39338934 0.53400897 3.91606575 0 0 Z " fill="#E9F3F8" transform="translate(1260,464)"/>
<path d="M0 0 C2.72426311 2.35277269 3.8141763 4.62496331 5 8 C4.01 7.67 3.02 7.34 2 7 C2 6.34 2 5.68 2 5 C1.34 5 0.68 5 0 5 C0 3.35 0 1.7 0 0 Z " fill="#163864" transform="translate(1251,447)"/>
</svg>
